<?xml version="1.0" standalone="no"?>
<svg xmlns="http://www.w3.org/2000/svg" xmlns:xlink="http://www.w3.org/1999/xlink" width="923pt" height="254pt" viewBox="0.00 0.00 923.20 254.00">
<g id="graph0" class="graph" transform="translate(4,250) scale(1)" data-name="G">

<polygon fill="white" stroke="none" points="-4,4 -4,-250 919.2,-250 919.2,4 -4,4" style=""/>
<g id="clust1" class="cluster" data-name="cluster_backend">

<polygon fill="none" stroke="black" points="169.05,-8 169.05,-238 907.2,-238 907.2,-8 169.05,-8" style=""/>
<text text-anchor="middle" x="538.13" y="-221.4" font-family="Times,serif" font-size="14.00" style="">Backend (PaaS/Serverless)</text>
</g>
<g id="clust2" class="cluster" data-name="cluster_app">

<polygon fill="none" stroke="black" points="177.05,-96 177.05,-174 576.8,-174 576.8,-96 177.05,-96" style=""/>
<text text-anchor="middle" x="376.93" y="-157.4" font-family="Times,serif" font-size="14.00" style="">Non-GPU App Server</text>
</g>
<g id="clust3" class="cluster" data-name="cluster_gpu">

<polygon fill="none" stroke="black" points="732.46,-16 732.46,-94 878.44,-94 878.44,-16 732.46,-16" style=""/>
<text text-anchor="middle" x="805.45" y="-77.4" font-family="Times,serif" font-size="14.00" style="">GPU Inference Worker</text>
</g>
<!-- client -->
<g id="node1" class="node" pointer-events="visible" data-name="client">

<polygon fill="none" stroke="black" points="0,-105 0,-141 54,-141 54,-105 0,-105" style=""/>
<text text-anchor="middle" x="27" y="-118.9" font-family="Times,serif" font-size="14.00" style="">Client</text>
</g>
<!-- api_gateway -->
<g id="node2" class="node" pointer-events="visible" data-name="api_gateway">

<polygon fill="none" stroke="black" points="185.05,-105 185.05,-141 312.66,-141 312.66,-105 185.05,-105" style=""/>
<text text-anchor="middle" x="248.86" y="-118.9" font-family="Times,serif" font-size="14.00" style="">API Gateway / BFF</text>
</g>
<!-- client&#45;&gt;api_gateway -->
<g id="edge1" class="edge" data-name="client-&gt;api_gateway">

<path fill="none" stroke="black" d="M64.98,-123C94.72,-123 137.45,-123 174.13,-123" style=""/>
<polygon fill="black" stroke="black" points="65.16,-119.5 55.16,-123 65.16,-126.5 65.16,-119.5" style=""/>
<polygon fill="black" stroke="black" points="173.78,-126.5 183.78,-123 173.78,-119.5 173.78,-126.5" style=""/>
<text text-anchor="middle" x="116.53" y="-127.2" font-family="Times,serif" font-size="14.00" style="">HTTP Requests</text>
</g>
<!-- business_logic -->
<g id="node3" class="node" pointer-events="visible" data-name="business_logic">

<polygon fill="none" stroke="black" points="430.72,-105 430.72,-141 568.8,-141 568.8,-105 430.72,-105" style=""/>
<text text-anchor="middle" x="499.76" y="-118.9" font-family="Times,serif" font-size="14.00" style="">Business Logic Layer</text>
</g>
<!-- api_gateway&#45;&gt;business_logic -->
<g id="edge2" class="edge" data-name="api_gateway-&gt;business_logic">

<path fill="none" stroke="black" d="M323.63,-123C353.93,-123 389.05,-123 419.86,-123" style=""/>
<polygon fill="black" stroke="black" points="323.86,-119.5 313.86,-123 323.86,-126.5 323.86,-119.5" style=""/>
<polygon fill="black" stroke="black" points="419.49,-126.5 429.49,-123 419.49,-119.5 419.49,-126.5" style=""/>
<text text-anchor="middle" x="371.69" y="-127.2" font-family="Times,serif" font-size="14.00" style="">Function Calls</text>
</g>
<!-- local_llm -->
<g id="node4" class="node" pointer-events="visible" data-name="local_llm">

<polygon fill="none" stroke="black" points="741.46,-25 741.46,-61 869.44,-61 869.44,-25 741.46,-25" style=""/>
<text text-anchor="middle" x="805.45" y="-38.9" font-family="Times,serif" font-size="14.00" style="">Local LLM Serving</text>
</g>
<!-- business_logic&#45;&gt;local_llm -->
<g id="edge3" class="edge" data-name="business_logic-&gt;local_llm">

<path fill="none" stroke="black" d="M525.46,-97.23C541.42,-82.39 563.51,-64.98 586.8,-56.2 632.49,-38.98 687.39,-35.76 730.62,-36.81" style=""/>
<polygon fill="black" stroke="black" points="523.11,-94.64 518.34,-104.1 527.97,-99.67 523.11,-94.64" style=""/>
<polygon fill="black" stroke="black" points="730.29,-40.3 740.4,-37.13 730.52,-33.3 730.29,-40.3" style=""/>
<text text-anchor="middle" x="640.25" y="-60.2" font-family="Times,serif" font-size="14.00" style="">Inference Requests</text>
</g>
<!-- llm_api -->
<g id="node5" class="node" pointer-events="visible" data-name="llm_api">

<polygon fill="none" stroke="black" points="734.47,-102.2 734.47,-143.8 876.43,-143.8 876.43,-102.2 734.47,-102.2" style=""/>
<text text-anchor="middle" x="805.45" y="-127.2" font-family="Times,serif" font-size="14.00" style="">External LLM Service</text>
<text text-anchor="middle" x="805.45" y="-110.4" font-family="Times,serif" font-size="14.00" style="">(e.g., OpenAI, Azure)</text>
</g>
<!-- business_logic&#45;&gt;llm_api -->
<g id="edge4" class="edge" data-name="business_logic-&gt;llm_api">

<path fill="none" stroke="black" d="M579.81,-123C623.89,-123 678.71,-123 723.15,-123" style=""/>
<polygon fill="black" stroke="black" points="580.05,-119.5 570.05,-123 580.05,-126.5 580.05,-119.5" style=""/>
<polygon fill="black" stroke="black" points="723,-126.5 733,-123 723,-119.5 723,-126.5" style=""/>
<text text-anchor="middle" x="640.25" y="-127.2" font-family="Times,serif" font-size="14.00" style="">Inference Requests</text>
</g>
<!-- database -->
<g id="node6" class="node" pointer-events="visible" data-name="database">

<polygon fill="none" stroke="black" points="711.7,-163.2 711.7,-204.8 899.2,-204.8 899.2,-163.2 711.7,-163.2" style=""/>
<text text-anchor="middle" x="805.45" y="-188.2" font-family="Times,serif" font-size="14.00" style="">External Database</text>
<text text-anchor="middle" x="805.45" y="-171.4" font-family="Times,serif" font-size="14.00" style="">(e.g., Cosmos DB, MongoDB)</text>
</g>
<!-- business_logic&#45;&gt;database -->
<g id="edge5" class="edge" data-name="business_logic-&gt;database">

<path fill="none" stroke="black" d="M579.85,-142.49C582.19,-143 584.51,-143.51 586.8,-144 623.83,-151.91 664.61,-159.66 700.76,-166.2" style=""/>
<polygon fill="black" stroke="black" points="580.78,-139.11 570.26,-140.32 579.24,-145.94 580.78,-139.11" style=""/>
<polygon fill="black" stroke="black" points="699.87,-169.6 710.33,-167.92 701.1,-162.71 699.87,-169.6" style=""/>
<text text-anchor="middle" x="640.25" y="-168.2" font-family="Times,serif" font-size="14.00" style="">Data Queries</text>
</g>
</g>
</svg>